<svg width="239" height="87" viewBox="0 0 239 87" fill="none" xmlns="http://www.w3.org/2000/svg">
<path d="M10.2193 3.23565L9.72089 5.17255L10.2193 3.23565ZM14.5393 3.39743L15.0012 5.34335L14.5393 3.39743ZM15.0193 3.28348L14.5574 1.33756L15.0193 3.28348ZM19.8193 2.4773L19.6232 0.486937L19.8193 2.4773ZM24.1393 2.60577L24.5127 0.640941L24.1393 2.60577ZM24.6193 2.697L24.2459 4.66182L24.6193 2.697ZM25.0993 2.78823L25.4727 0.823402L25.0993 2.78823ZM34.6993 2.6882L34.3535 0.718314L34.6993 2.6882ZM38.5393 2.4835L38.4018 4.47877L38.5393 2.4835ZM43.3393 3.23726L42.7836 5.15852L43.3393 3.23726ZM43.8193 3.37609L44.375 1.45484L43.8193 3.37609ZM44.2993 3.51492L43.7436 5.43618L44.2993 3.51492ZM48.1393 3.29905L47.3939 1.44317L48.1393 3.29905ZM52.9393 2.39079L53.196 0.40734L52.9393 2.39079ZM53.4193 2.45292L53.1626 4.43638L53.4193 2.45292ZM53.8993 2.51505L54.156 0.531598L53.8993 2.51505ZM57.7393 2.45663L58.055 4.43155L57.7393 2.45663ZM58.2193 2.3799L57.9036 0.404974L58.2193 2.3799ZM62.5393 2.56899L61.9676 4.48553L62.5393 2.56899ZM63.0193 2.71219L63.591 0.795647L63.0193 2.71219ZM63.4993 2.85538L62.9276 4.77192L63.4993 2.85538ZM67.3393 3.2742L67.4991 5.2678L67.3393 3.2742ZM68.2993 3.19722L68.1394 1.20362L68.2993 3.19722ZM72.1393 2.89208L72.2963 4.88591L72.1393 2.89208ZM73.0993 2.81648L72.9423 0.822657L73.0993 2.81648ZM76.9393 2.3738L77.2395 4.35115L76.9393 2.3738ZM77.8993 2.22806L77.5991 0.250718L77.8993 2.22806ZM81.7393 2.76661L82.5329 0.930817L81.7393 2.76661ZM82.6993 3.18163L81.9057 5.01743L82.6993 3.18163ZM86.5393 3.18779L85.7506 1.34985L86.5393 3.18779ZM87.0193 2.98182L87.808 4.81976L87.0193 2.98182ZM87.4993 2.77585L86.7106 0.937916L87.4993 2.77585ZM91.3393 2.39444L91.7884 0.445526L91.3393 2.39444ZM91.8193 2.50506L91.3702 4.45398L91.8193 2.50506ZM92.2993 2.61568L92.7484 0.666761L92.2993 2.61568ZM96.1393 2.80464L95.8775 0.821849L96.1393 2.80464ZM97.0993 2.67789L97.3611 4.66068L97.0993 2.67789ZM100.939 3.09628L101.6 1.20854L100.939 3.09628ZM101.419 3.26426L100.759 5.152L101.419 3.26426ZM101.899 3.43223L101.239 5.31998L101.899 3.43223ZM105.739 3.23307L106.566 5.05439L105.739 3.23307ZM106.699 2.79753L105.873 0.976207L106.699 2.79753ZM110.539 2.17162L110.793 0.187726L110.539 2.17162ZM111.019 2.23291L110.766 4.2168L111.019 2.23291ZM111.499 2.2942L111.246 4.27809L111.499 2.2942ZM115.339 2.64023L115.444 0.642986L115.339 2.64023ZM116.299 2.69067L116.194 4.68791L116.299 2.69067ZM121.099 2.67443L121.018 0.676077L121.099 2.67443ZM124.939 3.17961L124.358 5.09326L124.939 3.17961ZM125.419 3.32542L126.001 1.41177L125.419 3.32542ZM125.899 3.47124L125.318 5.38489L125.899 3.47124ZM129.739 3.62553L130.175 5.57741L129.739 3.62553ZM130.219 3.51829L129.783 1.56641L130.219 3.51829ZM130.699 3.41105L131.135 5.36292L130.699 3.41105ZM135.499 2.92825L135.462 0.928604L135.499 2.92825ZM139.339 3.42382L139.873 1.4963L139.339 3.42382ZM140.299 3.68955L139.766 5.61707L140.299 3.68955ZM144.139 3.51551L144.829 5.3928L144.139 3.51551ZM145.099 3.16277L144.41 1.28549L145.099 3.16277ZM149.899 2.80231L149.661 4.78811L149.899 2.80231ZM153.739 3.3002L154.016 1.31938L153.739 3.3002ZM154.699 3.43414L154.423 5.41495L154.699 3.43414ZM158.539 3.32269L158.927 5.28477L158.539 3.32269ZM159.019 3.22786L159.407 5.18994L159.019 3.22786ZM159.499 3.13303L159.112 1.17096L159.499 3.13303ZM163.339 2.72199L163.306 0.722261L163.339 2.72199ZM163.819 2.71406L163.786 0.714329L163.819 2.71406ZM168.139 3.31092L168.769 1.41253L168.139 3.31092ZM168.619 3.47005L167.99 5.36845L168.619 3.47005ZM169.099 3.62918L169.729 1.73079L169.099 3.62918ZM172.939 3.41661L173.748 5.24573L172.939 3.41661ZM173.899 2.99206L173.09 1.16295L173.899 2.99206ZM177.739 2.91585L178.486 1.06052L177.739 2.91585ZM178.219 3.10906L177.472 4.96439L178.219 3.10906ZM178.699 3.30228L179.446 1.44696L178.699 3.30228ZM182.539 3.95459L182.414 1.95852L182.539 3.95459ZM187.339 3.05773L186.64 1.18379L187.339 3.05773ZM187.819 2.87873L188.518 4.75267L187.819 2.87873ZM188.299 2.69973L187.6 0.825793L188.299 2.69973ZM192.619 2.00458L192.602 4.0045L192.619 2.00458ZM193.099 2.00874L193.082 4.00867L193.099 2.00874ZM196.939 2.71117L197.612 0.827693L196.939 2.71117ZM197.899 3.05404L197.227 4.93751L197.899 3.05404ZM201.739 3.47544L201.467 1.49413L201.739 3.47544ZM202.699 3.34327L202.972 5.32458L202.699 3.34327ZM207.499 3.04134L207.473 1.04151L207.499 3.04134ZM211.819 3.17613L211.686 5.17171L211.819 3.17613ZM212.299 3.2081L212.432 1.21252L212.299 3.2081ZM216.139 3.43432L216.037 5.4317L216.139 3.43432ZM216.619 3.45891L216.722 1.46153L216.619 3.45891ZM217.099 3.48349L216.997 5.48088L217.099 3.48349ZM221.419 3.78006L221.255 5.77327L221.419 3.78006ZM221.899 3.8197L222.064 1.82649L221.899 3.8197ZM225.739 3.35246L225.119 1.45093L225.739 3.35246ZM226.219 3.19601L226.839 5.09755L226.219 3.19601ZM226.699 3.03956L226.08 1.13802L226.699 3.03956ZM231.499 2.75894L231.261 4.74472L231.499 2.75894ZM234.885 3.91504L233.817 5.60592L234.885 3.91504ZM235.618 4.37803L234.55 6.06891L235.618 4.37803ZM236.545 7.22401L238.471 7.76438L236.545 7.22401ZM236.276 8.18401L234.35 7.64365L236.276 8.18401ZM235.87 12.024L233.875 12.1627L235.87 12.024ZM235.904 12.504L237.899 12.3653L235.904 12.504ZM235.937 12.984L233.942 13.1227L235.937 12.984ZM236.079 16.824L238.079 16.8149L236.079 16.824ZM236.082 17.304L234.082 17.3131L236.082 17.304ZM236.084 17.784L238.084 17.7749L236.084 17.784ZM236.323 21.624L238.309 21.3855L236.323 21.624ZM236.438 22.584L234.453 22.8226L236.438 22.584ZM236.578 26.424L234.58 26.3287L236.578 26.424ZM236.532 27.384L238.529 27.4794L236.532 27.384ZM236.343 31.224L234.346 31.1234L236.343 31.224ZM236.295 32.184L238.292 32.2847L236.295 32.184ZM236.143 36.024L238.142 36.0819L236.143 36.024ZM236.129 36.504L234.13 36.4461L236.129 36.504ZM236.115 36.984L238.114 37.0419L236.115 36.984ZM236.222 40.824L234.229 40.9931L236.222 40.824ZM236.304 41.784L238.296 41.6149L236.304 41.784ZM236.62 45.624L238.614 45.4645L236.62 45.624ZM236.658 46.104L234.665 46.2635L236.658 46.104ZM236.697 46.584L238.69 46.4245L236.697 46.584ZM236.819 50.424L238.819 50.4568L236.819 50.424ZM236.811 50.904L234.811 50.8713L236.811 50.904ZM236.803 51.384L238.803 51.4168L236.803 51.384ZM236.685 55.224L238.683 55.3144L236.685 55.224ZM236.663 55.704L234.665 55.6137L236.663 55.704ZM236.642 56.184L238.64 56.2744L236.642 56.184ZM236.014 60.024L237.939 60.5664L236.014 60.024ZM235.878 60.504L233.953 59.9616L235.878 60.504ZM235.743 60.984L233.818 60.4416L235.743 60.984ZM235.316 64.824L233.319 64.9422L235.316 64.824ZM235.344 65.304L237.341 65.1859L235.344 65.304ZM235.373 65.784L233.376 65.9022L235.373 65.784ZM235.971 69.624L237.91 69.1347L235.971 69.624ZM236.213 70.584L234.274 71.0733L236.213 70.584ZM236.705 74.424L234.705 74.4323L236.705 74.424ZM236.707 74.904L238.707 74.8957L236.707 74.904ZM236.709 75.384L234.709 75.3923L236.709 75.384ZM236.385 79.224L234.414 78.8826L236.385 79.224ZM236.302 79.704L238.272 80.0454L236.302 79.704ZM236.218 80.184L238.189 80.5254L236.218 80.184ZM234.419 82.3087L234.696 84.2895L234.419 82.3087ZM233.686 82.411L233.409 80.4302L233.686 82.411ZM230.299 82.5349L230.215 84.5332L230.299 82.5349ZM229.819 82.5148L229.903 80.5165L229.819 82.5148ZM229.339 82.4946L229.423 80.4964L229.339 82.4946ZM225.499 82.3262L225.408 84.3242L225.499 82.3262ZM225.019 82.3043L225.111 80.3064L225.019 82.3043ZM224.539 82.2824L224.631 80.2845L224.539 82.2824ZM220.699 82.3582L220.53 80.3654L220.699 82.3582ZM219.739 82.44L219.57 80.4472L219.739 82.44ZM215.899 82.5413L215.964 80.5424L215.899 82.5413ZM214.939 82.5102L214.875 84.5092L214.939 82.5102ZM211.099 82.2448L211.31 80.2559L211.099 82.2448ZM210.139 82.1432L209.929 84.132L210.139 82.1432ZM206.299 82.4915L206.851 84.4137L206.299 82.4915ZM205.819 82.6294L205.267 80.7071L205.819 82.6294ZM205.339 82.7673L205.891 84.6895L205.339 82.7673ZM201.499 83.5971L201.786 85.5764L201.499 83.5971ZM201.019 83.6666L201.306 85.646L201.019 83.6666ZM200.539 83.7362L200.252 81.7569L200.539 83.7362ZM196.699 83.8004L196.478 85.7881L196.699 83.8004ZM196.219 83.7469L196.441 81.7592L196.219 83.7469ZM195.739 83.6934L195.518 85.6811L195.739 83.6934ZM191.899 83.4257L191.843 85.4249L191.899 83.4257ZM191.419 83.4123L191.475 81.4131L191.419 83.4123ZM190.939 83.3989L190.883 85.3981L190.939 83.3989ZM187.099 83.4164L187.173 85.4151L187.099 83.4164ZM186.139 83.452L186.065 81.4534L186.139 83.452ZM182.299 83.5432L182.32 85.5431L182.299 83.5432ZM181.819 83.5481L181.799 81.5482L181.819 83.5481ZM181.339 83.5531L181.36 85.553L181.339 83.5531ZM177.499 83.0874L177.009 85.0263L177.499 83.0874ZM176.539 82.8446L177.03 80.9056L176.539 82.8446ZM172.699 82.7731L172.278 80.8181L172.699 82.7731ZM172.219 82.8767L172.641 84.8317L172.219 82.8767ZM171.739 82.9802L172.161 84.9352V84.9352L171.739 82.9802ZM167.899 83.3008L167.802 85.2984L167.899 83.3008ZM167.419 83.2774L167.322 85.275L167.419 83.2774ZM166.939 83.254L167.037 81.2564L166.939 83.254ZM163.099 83.1935L163.134 85.1932L163.099 83.1935ZM162.619 83.2018L162.585 81.2021L162.619 83.2018ZM162.139 83.2101L162.174 85.2098L162.139 83.2101ZM158.299 83.1785L158.367 81.1797L158.299 83.1785ZM157.819 83.1624L157.752 85.1612L157.819 83.1624ZM157.339 83.1462L157.407 81.1473L157.339 83.1462ZM153.499 82.7572L153.166 84.7292L153.499 82.7572ZM153.019 82.6761L153.352 80.704L153.019 82.6761ZM152.539 82.595L152.872 80.6229L152.539 82.595ZM148.699 83.0746L149.472 84.9194L148.699 83.0746ZM148.219 83.2757L147.447 81.4309L148.219 83.2757ZM147.739 83.4767L148.512 85.3214L147.739 83.4767ZM143.899 83.4019L144.732 81.5834L143.899 83.4019ZM143.419 83.1822L142.587 85.0007L143.419 83.1822ZM142.939 82.9625L143.772 81.1439L142.939 82.9625ZM139.099 82.1244L139.057 80.1248L139.099 82.1244ZM138.139 82.1447L138.182 84.1443L138.139 82.1447ZM134.299 82.5766L134.698 84.5364L134.299 82.5766ZM133.339 82.7722L132.94 80.8124L133.339 82.7722ZM129.499 83.4815L129.826 85.4546L129.499 83.4815ZM129.019 83.5611L128.692 81.588L129.019 83.5611ZM128.539 83.6406L128.866 85.6137L128.539 83.6406ZM124.699 83.9558L124.702 81.9558L124.699 83.9558ZM123.739 83.9542L123.736 85.9542L123.739 83.9542ZM115.099 83.3291L114.369 85.1909L115.099 83.3291ZM114.139 82.9524L114.87 81.0906L114.139 82.9524ZM110.299 82.4839L110.593 84.4623L110.299 82.4839ZM109.339 82.6265L109.046 80.6482L109.339 82.6265ZM105.499 82.7322L105.313 84.7236L105.499 82.7322ZM104.539 82.6426L104.353 84.6339L104.539 82.6426ZM100.699 82.7163L100.438 80.7334L100.699 82.7163ZM100.219 82.7795L100.481 84.7624L100.219 82.7795ZM99.7393 82.8428L99.478 80.8599L99.7393 82.8428ZM95.8993 82.9823L96.0173 80.9857L95.8993 82.9823ZM95.4193 82.9539L95.3012 84.9504L95.4193 82.9539ZM94.9393 82.9255L95.0573 80.929L94.9393 82.9255ZM91.0993 83.3272L90.5809 81.3955L91.0993 83.3272ZM90.6193 83.456L91.1376 85.3876L90.6193 83.456ZM90.1393 83.5848L89.6209 81.6531L90.1393 83.5848ZM86.2993 83.2823L85.5156 85.1224L86.2993 83.2823ZM85.3393 82.8735L86.1229 81.0334L85.3393 82.8735ZM81.4993 82.6604L80.8986 80.7527L81.4993 82.6604ZM80.5393 82.9627L81.14 84.8703L80.5393 82.9627ZM76.6993 83.3514L76.4758 85.3388L76.6993 83.3514ZM76.2193 83.2974L76.4427 81.3099V81.3099L76.2193 83.2974ZM75.7393 83.2434L75.5158 85.2309L75.7393 83.2434ZM71.8993 82.9533L71.9766 80.9548L71.8993 82.9533ZM71.4193 82.9348L71.342 84.9333L71.4193 82.9348ZM70.9393 82.9162L71.0165 80.9177L70.9393 82.9162ZM67.0993 83.3437L66.5936 81.4087L67.0993 83.3437ZM66.6193 83.4692L67.1249 85.4042L66.6193 83.4692ZM66.1393 83.5946L65.6336 81.6596L66.1393 83.5946ZM62.2993 83.6868L62.7164 81.7308L62.2993 83.6868ZM61.8193 83.5845L61.4021 85.5405L61.8193 83.5845ZM57.4993 83.0082L57.4322 85.0071L57.4993 83.0082ZM57.0193 82.9921L57.0863 80.9933L57.0193 82.9921ZM56.5393 82.976L56.4722 84.9749L56.5393 82.976ZM52.6993 82.5262L53.0929 80.5653L52.6993 82.5262ZM52.2193 82.4299L51.8256 84.3907L52.2193 82.4299ZM51.7393 82.3335L51.3456 84.2944L51.7393 82.3335ZM47.8993 82.5928L47.2626 80.6968L47.8993 82.5928ZM47.4193 82.754L48.0559 84.6499L47.4193 82.754ZM46.9393 82.9151L47.5759 84.8111L46.9393 82.9151ZM43.0993 83.5041L43.1573 81.505L43.0993 83.5041ZM42.6193 83.4902L42.5613 85.4894L42.6193 83.4902ZM42.1393 83.4763L42.1973 81.4771L42.1393 83.4763ZM38.2993 83.1177L37.9877 85.0933L38.2993 83.1177ZM37.8193 83.042L38.1309 81.0664L37.8193 83.042ZM37.3393 82.9663L37.0277 84.9419L37.3393 82.9663ZM33.4993 82.4999L33.669 80.5071L33.4993 82.4999ZM32.5393 82.4181L32.3695 84.4109L32.5393 82.4181ZM28.6993 82.3656L28.5837 80.369L28.6993 82.3656ZM28.2193 82.3934L28.1037 80.3967L28.2193 82.3934ZM27.7393 82.4212L27.8548 84.4178L27.7393 82.4212ZM23.8993 82.8593L24.2351 84.8309L23.8993 82.8593ZM22.9393 83.0229L22.6034 81.0513L22.9393 83.0229ZM19.0993 83.4846L18.9593 81.4895L19.0993 83.4846ZM18.6193 83.5183L18.4793 81.5232L18.6193 83.5183ZM18.1393 83.552L18.2792 85.5471L18.1393 83.552ZM14.2993 83.8174L14.1634 81.822L14.2993 83.8174ZM13.8193 83.8501L13.9551 85.8454L13.8193 83.8501ZM13.3393 83.8827L13.2034 81.8874L13.3393 83.8827ZM8.53927 82.904L7.82031 84.7703L8.53927 82.904ZM4.80854 82.0602L4.6937 84.0569L4.80854 82.0602ZM4.35586 82.0342L4.24102 84.0309L4.35586 82.0342ZM3.90318 82.0081L4.01802 80.0114L3.90318 82.0081ZM2.29462 79.984L0.305613 79.7746L2.29462 79.984ZM2.56407 74.704L0.564268 74.7321L2.56407 74.704ZM2.77903 70.384L0.795606 70.127L2.77903 70.384ZM2.90427 65.104L0.91485 65.3095L2.90427 65.104ZM3.17353 59.824L1.20501 59.4705L3.17353 59.824ZM3.26831 55.984L1.28505 56.2422L3.26831 55.984ZM3.38556 51.184L1.44822 50.6873L3.38556 51.184ZM3.3446 46.384L1.49144 47.1362L3.3446 46.384ZM4.05585 36.304L2.05777 36.3916L4.05585 36.304ZM2.71001 31.024L0.873176 31.8152L2.71001 31.024ZM2.01932 27.184L0.0243444 27.0423L2.01932 27.184ZM2.554 22.384L0.582919 22.0451L2.554 22.384ZM3.67163 16.624L1.71676 16.2015L3.67163 16.624ZM4.93929 2.90964L4.73786 0.919807L4.93929 2.90964ZM5.41929 2.86105L5.62073 4.85088L6.10073 4.80228L5.89929 2.81245L5.69786 0.822624L5.21786 0.871215L5.41929 2.86105ZM5.89929 2.81245L6.10073 4.80228C7.13972 4.6971 8.18289 4.7768 9.24089 5.04904L9.73929 3.11214L10.2377 1.17523C8.7357 0.788743 7.21886 0.668648 5.69786 0.822624L5.89929 2.81245ZM9.73929 3.11214L9.24089 5.04904L9.72089 5.17255L10.2193 3.23565L10.7177 1.29874L10.2377 1.17523L9.73929 3.11214ZM10.2193 3.23565L9.72089 5.17255L10.2009 5.29606L10.6993 3.35916L11.1977 1.42226L10.7177 1.29874L10.2193 3.23565ZM10.6993 3.35916L10.2009 5.29606C11.794 5.706 13.4036 5.7226 15.0012 5.34335L14.5393 3.39743L14.0774 1.4515C13.115 1.67996 12.1646 1.67106 11.1977 1.42226L10.6993 3.35916ZM14.5393 3.39743L15.0012 5.34335L15.4812 5.2294L15.0193 3.28348L14.5574 1.33756L14.0774 1.4515L14.5393 3.39743ZM15.0193 3.28348L15.4812 5.2294L15.9612 5.11546L15.4993 3.16954L15.0374 1.22361L14.5574 1.33756L15.0193 3.28348ZM15.4993 3.16954L15.9612 5.11546C17.1557 4.83191 18.3469 4.63205 19.5354 4.51495L19.3393 2.52459L19.1432 0.534228C17.7717 0.669354 16.4029 0.899458 15.0374 1.22361L15.4993 3.16954ZM19.3393 2.52459L19.5354 4.51495L20.0154 4.46766L19.8193 2.4773L19.6232 0.486937L19.1432 0.534228L19.3393 2.52459ZM19.8193 2.4773L20.0154 4.46766L20.4954 4.42037L20.2993 2.43001L20.1032 0.439646L19.6232 0.486937L19.8193 2.4773ZM20.2993 2.43001L20.4954 4.42037C21.5828 4.31324 22.671 4.36251 23.7659 4.57059L24.1393 2.60577L24.5127 0.640941C23.0476 0.362464 21.5758 0.294564 20.1032 0.439646L20.2993 2.43001ZM24.1393 2.60577L23.7659 4.57059L24.2459 4.66182L24.6193 2.697L24.9927 0.732172L24.5127 0.640941L24.1393 2.60577ZM24.6193 2.697L24.2459 4.66182L24.7259 4.75305L25.0993 2.78823L25.4727 0.823402L24.9927 0.732172L24.6193 2.697ZM25.0993 2.78823L24.7259 4.75305C26.1213 5.01828 27.5206 5.15746 28.9224 5.1693L28.9393 3.16937L28.9562 1.16944C27.798 1.15966 26.6373 1.04474 25.4727 0.823402L25.0993 2.78823ZM28.9393 3.16937L28.9224 5.1693L29.4024 5.17335L29.4193 3.17342L29.4362 1.1735L28.9562 1.16944L28.9393 3.16937ZM29.4193 3.17342L29.4024 5.17335L29.8824 5.17741L29.8993 3.17748L29.9162 1.17755L29.4362 1.1735L29.4193 3.17342ZM29.8993 3.17748L29.8824 5.17741C31.2858 5.18926 32.6872 5.07195 34.085 4.82659L33.7393 2.8567L33.3935 0.886814C32.2314 1.09079 31.0728 1.18732 29.9162 1.17755L29.8993 3.17748ZM33.7393 2.8567L34.085 4.82659L34.5651 4.74234L34.2193 2.77245L33.8735 0.802564L33.3935 0.886814L33.7393 2.8567ZM34.2193 2.77245L34.5651 4.74234L35.045 4.65809L34.6993 2.6882L34.3535 0.718314L33.8735 0.802564L34.2193 2.77245ZM34.6993 2.6882L35.045 4.65809C36.1677 4.46105 37.2854 4.40184 38.4018 4.47877L38.5393 2.4835L38.6768 0.488229C37.2332 0.388759 35.7909 0.466023 34.3535 0.718314L34.6993 2.6882ZM38.5393 2.4835L38.4018 4.47877L38.8818 4.51184L39.0193 2.51657L39.1568 0.521303L38.6768 0.488229L38.5393 2.4835ZM39.0193 2.51657L38.8818 4.51184L39.3618 4.54491L39.4993 2.54965L39.6368 0.554377L39.1568 0.521303L39.0193 2.51657ZM39.4993 2.54965L39.3618 4.54491C40.4948 4.62299 41.6347 4.82623 42.7836 5.15852L43.3393 3.23726L43.895 1.31601C42.4838 0.907868 41.0638 0.652702 39.6368 0.554377L39.4993 2.54965ZM43.3393 3.23726L42.7836 5.15852L43.2636 5.29735L43.8193 3.37609L44.375 1.45484L43.895 1.31601L43.3393 3.23726ZM43.8193 3.37609L43.2636 5.29735L43.7436 5.43618L44.2993 3.51492L44.855 1.59367L44.375 1.45484L43.8193 3.37609ZM44.2993 3.51492L43.7436 5.43618C45.4685 5.93505 47.2062 5.82914 48.8847 5.15494L48.1393 3.29905L47.3939 1.44317C46.5124 1.79722 45.6901 1.83521 44.855 1.59367L44.2993 3.51492ZM48.1393 3.29905L48.8847 5.15494L49.3647 4.96215L48.6193 3.10626L47.8739 1.25037L47.3939 1.44317L48.1393 3.29905ZM48.6193 3.10626L49.3647 4.96215L49.8447 4.76935L49.0993 2.91346L48.3539 1.05757L47.8739 1.25037L48.6193 3.10626ZM49.0993 2.91346L49.8447 4.76935C50.8296 4.37375 51.7653 4.25553 52.6826 4.37425L52.9393 2.39079L53.196 0.40734C51.5532 0.194705 49.9289 0.424924 48.3539 1.05757L49.0993 2.91346ZM52.9393 2.39079L52.6826 4.37425L53.1626 4.43638L53.4193 2.45292L53.676 0.469469L53.196 0.40734L52.9393 2.39079ZM53.4193 2.45292L53.1626 4.43638L53.6426 4.49851L53.8993 2.51505L54.156 0.531598L53.676 0.469469L53.4193 2.45292ZM53.8993 2.51505L53.6426 4.49851C55.1136 4.68892 56.5864 4.66633 58.055 4.43155L57.7393 2.45663L57.4236 0.481708C56.3322 0.656185 55.245 0.672545 54.156 0.531598L53.8993 2.51505ZM57.7393 2.45663L58.055 4.43155L58.535 4.35482L58.2193 2.3799L57.9036 0.404974L57.4236 0.481708L57.7393 2.45663ZM58.2193 2.3799L58.535 4.35482L59.015 4.27809L58.6993 2.30316L58.3836 0.328239L57.9036 0.404974L58.2193 2.3799ZM58.6993 2.30316L59.015 4.27809C59.9894 4.12232 60.9662 4.18681 61.9676 4.48553L62.5393 2.56899L63.111 0.652455C61.5524 0.187483 59.9692 0.0747564 58.3836 0.328239L58.6993 2.30316ZM62.5393 2.56899L61.9676 4.48553L62.4476 4.62872L63.0193 2.71219L63.591 0.795647L63.111 0.652455L62.5393 2.56899ZM63.0193 2.71219L62.4476 4.62872L62.9276 4.77192L63.4993 2.85538L64.071 0.938839L63.591 0.795647L63.0193 2.71219ZM63.4993 2.85538L62.9276 4.77192C64.4349 5.22157 65.9627 5.39099 67.4991 5.2678L67.3393 3.2742L67.1794 1.2806C66.1559 1.36267 65.1237 1.25287 64.071 0.938839L63.4993 2.85538ZM67.3393 3.2742L67.4991 5.2678L67.9791 5.22931L67.8193 3.23571L67.6595 1.24211L67.1794 1.2806L67.3393 3.2742ZM67.8193 3.23571L67.9791 5.22931L68.4591 5.19083L68.2993 3.19722L68.1394 1.20362L67.6595 1.24211L67.8193 3.23571ZM68.2993 3.19722L68.4591 5.19083C69.7382 5.08827 71.0173 4.98663 72.2963 4.88591L72.1393 2.89208L71.9823 0.898255C70.7013 0.999126 69.4204 1.10092 68.1394 1.20362L68.2993 3.19722ZM72.1393 2.89208L72.2963 4.88591L72.7763 4.84811L72.6193 2.85428L72.4623 0.860456L71.9823 0.898255L72.1393 2.89208ZM72.6193 2.85428L72.7763 4.84811L73.2563 4.81031L73.0993 2.81648L72.9423 0.822657L72.4623 0.860456L72.6193 2.85428ZM73.0993 2.81648L73.2563 4.81031C74.5846 4.70571 75.9124 4.55262 77.2395 4.35115L76.9393 2.3738L76.6391 0.39646C75.4062 0.58363 74.174 0.725663 72.9423 0.822657L73.0993 2.81648ZM76.9393 2.3738L77.2395 4.35115L77.7195 4.27828L77.4193 2.30093L77.1191 0.323589L76.6391 0.39646L76.9393 2.3738ZM77.4193 2.30093L77.7195 4.27828L78.1995 4.2054L77.8993 2.22806L77.5991 0.250718L77.1191 0.323589L77.4193 2.30093ZM77.8993 2.22806L78.1995 4.2054C79.0802 4.07171 79.9822 4.18588 80.9457 4.60241L81.7393 2.76661L82.5329 0.930817C80.9364 0.240626 79.2784 -0.00423002 77.5991 0.250718L77.8993 2.22806ZM81.7393 2.76661L80.9457 4.60241L81.4257 4.80992L82.2193 2.97412L83.0129 1.13833L82.5329 0.930817L81.7393 2.76661ZM82.2193 2.97412L81.4257 4.80992L81.9057 5.01743L82.6993 3.18163L83.4929 1.34584L83.0129 1.13833L82.2193 2.97412ZM82.6993 3.18163L81.9057 5.01743C83.6897 5.78869 85.542 5.79209 87.328 5.02573L86.5393 3.18779L85.7506 1.34985C84.9766 1.68199 84.2689 1.68129 83.4929 1.34584L82.6993 3.18163ZM86.5393 3.18779L87.328 5.02573L87.808 4.81976L87.0193 2.98182L86.2306 1.14389L85.7506 1.34985L86.5393 3.18779ZM87.0193 2.98182L87.808 4.81976L88.288 4.61379L87.4993 2.77585L86.7106 0.937916L86.2306 1.14389L87.0193 2.98182ZM87.4993 2.77585L88.288 4.61379C89.2027 4.22128 90.0499 4.14972 90.8902 4.34336L91.3393 2.39444L91.7884 0.445526C90.0687 0.0492122 88.3559 0.231918 86.7106 0.937916L87.4993 2.77585ZM91.3393 2.39444L90.8902 4.34336L91.3702 4.45398L91.8193 2.50506L92.2684 0.556144L91.7884 0.445526L91.3393 2.39444ZM91.8193 2.50506L91.3702 4.45398L91.8502 4.5646L92.2993 2.61568L92.7484 0.666761L92.2684 0.556144L91.8193 2.50506ZM92.2993 2.61568L91.8502 4.5646C93.3591 4.91233 94.8798 4.98829 96.4011 4.78743L96.1393 2.80464L95.8775 0.821849C94.8388 0.958999 93.7995 0.908987 92.7484 0.666761L92.2993 2.61568ZM96.1393 2.80464L96.4011 4.78743L96.8811 4.72405L96.6193 2.74126L96.3575 0.758471L95.8775 0.821849L96.1393 2.80464ZM96.6193 2.74126L96.8811 4.72405L97.3611 4.66068L97.0993 2.67789L96.8375 0.695094L96.3575 0.758471L96.6193 2.74126ZM97.0993 2.67789L97.3611 4.66068C98.3147 4.53477 99.2791 4.63424 100.279 4.98403L100.939 3.09628L101.6 1.20854C100.039 0.662455 98.4439 0.482995 96.8375 0.695094L97.0993 2.67789ZM100.939 3.09628L100.279 4.98403L100.759 5.152L101.419 3.26426L102.08 1.37651L101.6 1.20854L100.939 3.09628ZM101.419 3.26426L100.759 5.152L101.239 5.31998L101.899 3.43223L102.56 1.54449L102.08 1.37651L101.419 3.26426ZM101.899 3.43223L101.239 5.31998C103.024 5.94465 104.836 5.83912 106.566 5.05439L105.739 3.23307L104.913 1.41174C104.083 1.78844 103.335 1.81569 102.56 1.54449L101.899 3.43223ZM105.739 3.23307L106.566 5.05439L107.046 4.83662L106.219 3.0153L105.393 1.19398L104.913 1.41174L105.739 3.23307ZM106.219 3.0153L107.046 4.83662L107.526 4.61886L106.699 2.79753L105.873 0.976207L105.393 1.19398L106.219 3.0153ZM106.699 2.79753L107.526 4.61886C108.499 4.17723 109.407 4.04322 110.286 4.15551L110.539 2.17162L110.793 0.187726C109.112 -0.0268648 107.46 0.256402 105.873 0.976207L106.699 2.79753ZM110.539 2.17162L110.286 4.15551L110.766 4.2168L111.019 2.23291L111.273 0.249015L110.793 0.187726L110.539 2.17162ZM111.019 2.23291L110.766 4.2168L111.246 4.27809L111.499 2.2942L111.753 0.310305L111.273 0.249015L111.019 2.23291ZM111.499 2.2942L111.246 4.27809C112.575 4.44778 113.904 4.5676 115.234 4.63748L115.339 2.64023L115.444 0.642986C114.214 0.57836 112.984 0.467494 111.753 0.310305L111.499 2.2942ZM115.339 2.64023L115.234 4.63748L115.714 4.6627L115.819 2.66545L115.924 0.668205L115.444 0.642986L115.339 2.64023ZM115.819 2.66545L115.714 4.6627L116.194 4.68791L116.299 2.69067L116.404 0.693423L115.924 0.668205L115.819 2.66545ZM116.299 2.69067L116.194 4.68791C117.536 4.75842 118.878 4.76639 120.221 4.71181L120.139 2.71346L120.058 0.715117C118.84 0.764644 117.622 0.757417 116.404 0.693423L116.299 2.69067ZM120.139 2.71346L120.221 4.71181L120.701 4.69229L120.619 2.69395L120.538 0.695597L120.058 0.715117L120.139 2.71346ZM120.619 2.69395L120.701 4.69229L121.181 4.67277L121.099 2.67443L121.018 0.676077L120.538 0.695597L120.619 2.69395ZM121.099 2.67443L121.181 4.67277C122.227 4.63023 123.283 4.76668 124.358 5.09326L124.939 3.17961L125.521 1.26596C124.036 0.814854 122.532 0.614515 121.018 0.676077L121.099 2.67443ZM124.939 3.17961L124.358 5.09326L124.838 5.23907L125.419 3.32542L126.001 1.41177L125.521 1.26596L124.939 3.17961ZM125.419 3.32542L124.838 5.23907L125.318 5.38489L125.899 3.47124L126.481 1.55759L126.001 1.41177L125.419 3.32542ZM125.899 3.47124L125.318 5.38489C126.921 5.87193 128.552 5.94018 130.175 5.57741L129.739 3.62553L129.303 1.67365C128.367 1.88283 127.437 1.84823 126.481 1.55759L125.899 3.47124ZM129.739 3.62553L130.175 5.57741L130.655 5.47016L130.219 3.51829L129.783 1.56641L129.303 1.67365L129.739 3.62553ZM130.219 3.51829L130.655 5.47016L131.135 5.36292L130.699 3.41105L130.263 1.45917L129.783 1.56641L130.219 3.51829ZM130.699 3.41105L131.135 5.36292C132.288 5.10549 133.434 4.9672 134.577 4.94585L134.539 2.9462L134.502 0.946545C133.085 0.973035 131.671 1.14465 130.263 1.45917L130.699 3.41105ZM134.539 2.9462L134.577 4.94585L135.057 4.93688L135.019 2.93723L134.982 0.937575L134.502 0.946545L134.539 2.9462ZM135.019 2.93723L135.057 4.93688L135.537 4.92791L135.499 2.92825L135.462 0.928604L134.982 0.937575L135.019 2.93723ZM135.499 2.92825L135.537 4.92791C136.617 4.90772 137.705 5.04655 138.806 5.35135L139.339 3.42382L139.873 1.4963C138.414 1.0925 136.942 0.900946 135.462 0.928604L135.499 2.92825ZM139.339 3.42382L138.806 5.35135L139.286 5.48421L139.819 3.55669L140.353 1.62917L139.873 1.4963L139.339 3.42382ZM139.819 3.55669L139.286 5.48421L139.766 5.61707L140.299 3.68955L140.833 1.76203L140.353 1.62917L139.819 3.55669ZM140.299 3.68955L139.766 5.61707C141.46 6.08608 143.168 6.00321 144.829 5.3928L144.139 3.51551L143.45 1.63823C142.551 1.96847 141.698 2.00163 140.833 1.76203L140.299 3.68955ZM144.139 3.51551L144.829 5.3928L145.309 5.21642L144.619 3.33914L143.93 1.46186L143.45 1.63823L144.139 3.51551ZM144.619 3.33914L145.309 5.21642L145.789 5.04005L145.099 3.16277L144.41 1.28549L143.93 1.46186L144.619 3.33914ZM145.099 3.16277L145.789 5.04005C146.79 4.67214 147.753 4.55948 148.701 4.6731L148.939 2.6873L149.177 0.701498C147.566 0.508432 145.968 0.71275 144.41 1.28549L145.099 3.16277ZM148.939 2.6873L148.701 4.6731L149.181 4.7306L149.419 2.7448L149.657 0.759001L149.177 0.701498L148.939 2.6873ZM149.419 2.7448L149.181 4.7306L149.661 4.78811L149.899 2.80231L150.137 0.816505L149.657 0.759001L149.419 2.7448ZM149.899 2.80231L149.661 4.78811C150.929 4.93991 152.196 5.10421 153.463 5.28101L153.739 3.3002L154.016 1.31938C152.723 1.13902 151.43 0.97139 150.137 0.816505L149.899 2.80231ZM153.739 3.3002L153.463 5.28101L153.943 5.34798L154.219 3.36717L154.496 1.38635L154.016 1.31938L153.739 3.3002ZM154.219 3.36717L153.943 5.34798L154.423 5.41495L154.699 3.43414L154.976 1.45332L154.496 1.38635L154.219 3.36717ZM154.699 3.43414L154.423 5.41495C155.926 5.62464 157.43 5.58044 158.927 5.28477L158.539 3.32269L158.152 1.36062C157.088 1.5707 156.033 1.6008 154.976 1.45332L154.699 3.43414ZM158.539 3.32269L158.927 5.28477L159.407 5.18994L159.019 3.22786L158.632 1.26579L158.152 1.36062L158.539 3.32269ZM159.019 3.22786L159.407 5.18994L159.887 5.09511L159.499 3.13303L159.112 1.17096L158.632 1.26579L159.019 3.22786ZM159.499 3.13303L159.887 5.09511C161.052 4.86487 162.214 4.74086 163.372 4.72172L163.339 2.72199L163.306 0.722261C161.905 0.745418 160.506 0.89544 159.112 1.17096L159.499 3.13303ZM163.339 2.72199L163.372 4.72172L163.852 4.71378L163.819 2.71406L163.786 0.714329L163.306 0.722261L163.339 2.72199ZM163.819 2.71406L163.852 4.71378L164.332 4.70585L164.299 2.70612L164.266 0.706398L163.786 0.714329L163.819 2.71406ZM164.299 2.70612L164.332 4.70585C165.376 4.68861 166.432 4.85195 167.51 5.20932L168.139 3.31092L168.769 1.41253C167.287 0.921194 165.783 0.681334 164.266 0.706398L164.299 2.70612ZM168.139 3.31092L167.51 5.20932L167.99 5.36845L168.619 3.47005L169.249 1.57166L168.769 1.41253L168.139 3.31092ZM168.619 3.47005L167.99 5.36845L168.47 5.52758L169.099 3.62918L169.729 1.73079L169.249 1.57166L168.619 3.47005ZM169.099 3.62918L168.47 5.52758C170.241 6.11459 172.033 6.00429 173.748 5.24573L172.939 3.41661L172.13 1.58749C171.286 1.96106 170.518 1.99247 169.729 1.73079L169.099 3.62918ZM172.939 3.41661L173.748 5.24573L174.228 5.03346L173.419 3.20434L172.61 1.37522L172.13 1.58749L172.939 3.41661ZM173.419 3.20434L174.228 5.03346L174.708 4.82118L173.899 2.99206L173.09 1.16295L172.61 1.37522L173.419 3.20434ZM173.899 2.99206L174.708 4.82118C175.502 4.46996 176.221 4.46077 176.992 4.77117L177.739 2.91585L178.486 1.06052C176.697 0.34042 174.856 0.382041 173.09 1.16295L173.899 2.99206ZM177.739 2.91585L176.992 4.77117L177.472 4.96439L178.219 3.10906L178.966 1.25374L178.486 1.06052L177.739 2.91585ZM178.219 3.10906L177.472 4.96439L177.952 5.15761L178.699 3.30228L179.446 1.44696L178.966 1.25374L178.219 3.10906ZM178.699 3.30228L177.952 5.15761C179.488 5.7756 181.065 6.05112 182.665 5.95065L182.539 3.95459L182.414 1.95852C181.454 2.01882 180.471 1.85947 179.446 1.44696L178.699 3.30228ZM182.539 3.95459L182.665 5.95065L183.145 5.92051L183.019 3.92444L182.894 1.92837L182.414 1.95852L182.539 3.95459ZM183.019 3.92444L183.145 5.92051L183.625 5.89037L183.499 3.8943L183.374 1.89823L182.894 1.92837L183.019 3.92444ZM183.499 3.8943L183.625 5.89037C185.113 5.79689 186.586 5.47319 188.038 4.93167L187.339 3.05773L186.64 1.18379C185.533 1.59693 184.445 1.83094 183.374 1.89823L183.499 3.8943ZM187.339 3.05773L188.038 4.93167L188.518 4.75267L187.819 2.87873L187.12 1.00479L186.64 1.18379L187.339 3.05773ZM187.819 2.87873L188.518 4.75267L188.998 4.57367L188.299 2.69973L187.6 0.825793L187.12 1.00479L187.819 2.87873ZM188.299 2.69973L188.998 4.57367C190.065 4.17596 191.102 3.99148 192.122 4.00033L192.139 2.00041L192.157 0.00048399C190.616 -0.0128915 189.094 0.268846 187.6 0.825793L188.299 2.69973ZM192.139 2.00041L192.122 4.00033L192.602 4.0045L192.619 2.00458L192.637 0.00465178L192.157 0.00048399L192.139 2.00041ZM192.619 2.00458L192.602 4.0045L193.082 4.00867L193.099 2.00874L193.117 0.00881958L192.637 0.00465178L192.619 2.00458ZM193.099 2.00874L193.082 4.00867C194.125 4.01773 195.184 4.20795 196.267 4.59464L196.939 2.71117L197.612 0.827693C196.135 0.300049 194.634 0.0219905 193.117 0.00881958L193.099 2.00874ZM196.939 2.71117L196.267 4.59464L196.747 4.76608L197.419 2.8826L198.092 0.999131L197.612 0.827693L196.939 2.71117ZM197.419 2.8826L196.747 4.76608L197.227 4.93751L197.899 3.05404L198.572 1.17057L198.092 0.999131L197.419 2.8826ZM197.899 3.05404L197.227 4.93751C198.793 5.49701 200.397 5.67912 202.012 5.45675L201.739 3.47544L201.467 1.49413C200.522 1.62423 199.565 1.52541 198.572 1.17057L197.899 3.05404ZM201.739 3.47544L202.012 5.45675L202.492 5.39067L202.219 3.40936L201.947 1.42805L201.467 1.49413L201.739 3.47544ZM202.219 3.40936L202.492 5.39067L202.972 5.32458L202.699 3.34327L202.427 1.36196L201.947 1.42805L202.219 3.40936ZM202.699 3.34327L202.972 5.32458C204.171 5.1595 205.369 5.06931 206.565 5.0537L206.539 3.05387L206.513 1.05404C205.15 1.07183 203.788 1.17458 202.427 1.36196L202.699 3.34327ZM206.539 3.05387L206.565 5.0537L207.045 5.04743L207.019 3.0476L206.993 1.04777L206.513 1.05404L206.539 3.05387ZM207.019 3.0476L207.045 5.04743L207.525 5.04117L207.499 3.04134L207.473 1.04151L206.993 1.04777L207.019 3.0476ZM207.499 3.04134L207.525 5.04117C208.752 5.02516 209.979 5.05801 211.206 5.13974L211.339 3.14416L211.472 1.14858C210.139 1.05982 208.806 1.02411 207.473 1.04151L207.499 3.04134ZM211.339 3.14416L211.206 5.13974L211.686 5.17171L211.819 3.17613L211.952 1.18055L211.472 1.14858L211.339 3.14416ZM211.819 3.17613L211.686 5.17171L212.166 5.20368L212.299 3.2081L212.432 1.21252L211.952 1.18055L211.819 3.17613ZM212.299 3.2081L212.166 5.20368C213.457 5.28961 214.747 5.36562 216.037 5.4317L216.139 3.43432L216.242 1.43694C214.972 1.3719 213.702 1.29709 212.432 1.21252L212.299 3.2081ZM216.139 3.43432L216.037 5.4317L216.517 5.45629L216.619 3.45891L216.722 1.46153L216.242 1.43694L216.139 3.43432ZM216.619 3.45891L216.517 5.45629L216.997 5.48088L217.099 3.48349L217.202 1.48611L216.722 1.46153L216.619 3.45891ZM217.099 3.48349L216.997 5.48088C218.256 5.54537 219.515 5.62962 220.775 5.73363L220.939 3.74042L221.104 1.7472C219.803 1.63977 218.502 1.55274 217.202 1.48611L217.099 3.48349ZM220.939 3.74042L220.775 5.73363L221.255 5.77327L221.419 3.78006L221.584 1.78685L221.104 1.7472L220.939 3.74042ZM221.419 3.78006L221.255 5.77327L221.735 5.81292L221.899 3.8197L222.064 1.82649L221.584 1.78685L221.419 3.78006ZM221.899 3.8197L221.735 5.81292C223.292 5.94157 224.839 5.74956 226.359 5.254L225.739 3.35246L225.119 1.45093C224.08 1.78979 223.066 1.90927 222.064 1.82649L221.899 3.8197ZM225.739 3.35246L226.359 5.254L226.839 5.09755L226.219 3.19601L225.6 1.29447L225.119 1.45093L225.739 3.35246ZM226.219 3.19601L226.839 5.09755L227.319 4.9411L226.699 3.03956L226.08 1.13802L225.6 1.29447L226.219 3.19601ZM226.699 3.03956L227.319 4.9411C228.335 4.60989 229.323 4.51237 230.301 4.62966L230.539 2.64387L230.777 0.658084C229.196 0.468528 227.623 0.634802 226.08 1.13802L226.699 3.03956ZM230.539 2.64387L230.301 4.62966L230.781 4.68719L231.019 2.7014L231.257 0.715617L230.777 0.658084L230.539 2.64387ZM231.019 2.7014L230.781 4.68719L231.261 4.74472L231.499 2.75894L231.737 0.773149L231.257 0.715617L231.019 2.7014ZM231.499 2.75894L231.261 4.74472C232.28 4.86687 233.119 5.16486 233.817 5.60592L234.885 3.91504L235.953 2.22417C234.697 1.43059 233.278 0.957837 231.737 0.773149L231.499 2.75894ZM234.885 3.91504L233.817 5.60592L234.183 5.83742L235.252 4.14654L236.32 2.45566L235.953 2.22417L234.885 3.91504ZM235.252 4.14654L234.183 5.83742L234.55 6.06891L235.618 4.37803L236.686 2.68715L236.32 2.45566L235.252 4.14654ZM235.618 4.37803L234.55 6.06891C234.639 6.12495 234.673 6.1633 234.68 6.17257C234.684 6.17754 234.684 6.17852 234.683 6.17593C234.682 6.17328 234.681 6.17136 234.681 6.17196C234.681 6.17276 234.684 6.18016 234.686 6.19648C234.688 6.21309 234.691 6.24066 234.69 6.28112C234.688 6.36365 234.672 6.49505 234.619 6.68365L236.545 7.22401L238.471 7.76438C238.722 6.86793 238.796 5.88934 238.484 4.93308C238.163 3.94658 237.503 3.20329 236.686 2.68715L235.618 4.37803ZM236.545 7.22401L234.619 6.68365L234.485 7.16365L236.41 7.70401L238.336 8.24438L238.471 7.76438L236.545 7.22401ZM236.41 7.70401L234.485 7.16365L234.35 7.64365L236.276 8.18401L238.201 8.72438L238.336 8.24438L236.41 7.70401ZM236.276 8.18401L234.35 7.64365C233.931 9.13627 233.77 10.6458 233.875 12.1627L235.87 12.024L237.866 11.8853C237.793 10.8422 237.902 9.79175 238.201 8.72438L236.276 8.18401ZM235.87 12.024L233.875 12.1627L233.909 12.6427L235.904 12.504L237.899 12.3653L237.866 11.8853L235.87 12.024ZM235.904 12.504L233.909 12.6427L233.942 13.1227L235.937 12.984L237.932 12.8453L237.899 12.3653L235.904 12.504ZM235.937 12.984L233.942 13.1227C234.028 14.3597 234.074 15.5965 234.079 16.8331L236.079 16.824L238.079 16.8149C238.073 15.4916 238.024 14.1683 237.932 12.8453L235.937 12.984ZM236.079 16.824L234.079 16.8331L234.082 17.3131L236.082 17.304L238.082 17.2949L238.079 16.8149L236.079 16.824ZM236.082 17.304L234.082 17.3131L234.084 17.7931L236.084 17.784L238.084 17.7749L238.082 17.2949L236.082 17.304ZM236.084 17.784L234.084 17.7931C234.09 19.1504 234.175 20.507 234.337 21.8626L236.323 21.624L238.309 21.3855C238.164 20.1811 238.089 18.9777 238.084 17.7749L236.084 17.784ZM236.323 21.624L234.337 21.8626L234.395 22.3426L236.381 22.104L238.367 21.8654L238.309 21.3855L236.323 21.624ZM236.381 22.104L234.395 22.3426L234.453 22.8226L236.438 22.584L238.424 22.3455L238.367 21.8654L236.381 22.104ZM236.438 22.584L234.453 22.8226C234.593 23.9925 234.636 25.1608 234.58 26.3287L236.578 26.424L238.575 26.5194C238.642 25.1272 238.591 23.7356 238.424 22.3455L236.438 22.584ZM236.578 26.424L234.58 26.3287L234.557 26.8087L236.555 26.904L238.552 26.9994L238.575 26.5194L236.578 26.424ZM236.555 26.904L234.557 26.8087L234.534 27.2887L236.532 27.384L238.529 27.4794L238.552 26.9994L236.555 26.904ZM236.532 27.384L234.534 27.2887C234.473 28.5669 234.41 29.8451 234.346 31.1234L236.343 31.224L238.341 31.3247C238.405 30.0429 238.468 28.7611 238.529 27.4794L236.532 27.384ZM236.343 31.224L234.346 31.1234L234.322 31.6034L236.319 31.704L238.317 31.8047L238.341 31.3247L236.343 31.224ZM236.319 31.704L234.322 31.6034L234.297 32.0834L236.295 32.184L238.292 32.2847L238.317 31.8047L236.319 31.704ZM236.295 32.184L234.297 32.0834C234.232 33.3776 234.181 34.6718 234.143 35.9661L236.143 36.024L238.142 36.0819C238.178 34.8162 238.229 33.5504 238.292 32.2847L236.295 32.184ZM236.143 36.024L234.143 35.9661L234.13 36.4461L236.129 36.504L238.128 36.5619L238.142 36.0819L236.143 36.024ZM236.129 36.504L234.13 36.4461L234.116 36.9261L236.115 36.984L238.114 37.0419L238.128 36.5619L236.129 36.504ZM236.115 36.984L234.116 36.9261C234.076 38.2821 234.114 39.6379 234.229 40.9931L236.222 40.824L238.215 40.6549C238.113 39.4502 238.079 38.246 238.114 37.0419L236.115 36.984ZM236.222 40.824L234.229 40.9931L234.27 41.4731L236.263 41.304L238.256 41.1349L238.215 40.6549L236.222 40.824ZM236.263 41.304L234.27 41.4731L234.311 41.9531L236.304 41.784L238.296 41.6149L238.256 41.1349L236.263 41.304ZM236.304 41.784L234.311 41.9531C234.419 43.2299 234.524 44.5067 234.626 45.7835L236.62 45.624L238.614 45.4645C238.511 44.1813 238.405 42.8981 238.296 41.6149L236.304 41.784ZM236.62 45.624L234.626 45.7835L234.665 46.2635L236.658 46.104L238.652 45.9445L238.614 45.4645L236.62 45.624ZM236.658 46.104L234.665 46.2635L234.703 46.7435L236.697 46.584L238.69 46.4245L238.652 45.9445L236.658 46.104ZM236.697 46.584L234.703 46.7435C234.8 47.9598 234.839 49.1756 234.819 50.3913L236.819 50.424L238.819 50.4568C238.841 49.1124 238.798 47.7683 238.69 46.4245L236.697 46.584ZM236.819 50.424L234.819 50.3913L234.811 50.8713L236.811 50.904L238.811 50.9368L238.819 50.4568L236.819 50.424ZM236.811 50.904L234.811 50.8713L234.804 51.3513L236.803 51.384L238.803 51.4168L238.811 50.9368L236.811 50.904ZM236.803 51.384L234.804 51.3513C234.783 52.612 234.744 53.8728 234.687 55.1337L236.685 55.224L238.683 55.3144C238.742 54.0152 238.782 52.716 238.803 51.4168L236.803 51.384ZM236.685 55.224L234.687 55.1337L234.665 55.6137L236.663 55.704L238.661 55.7944L238.683 55.3144L236.685 55.224ZM236.663 55.704L234.665 55.6137L234.644 56.0937L236.642 56.184L238.64 56.2744L238.661 55.7944L236.663 55.704ZM236.642 56.184L234.644 56.0937C234.593 57.215 234.409 58.3434 234.089 59.4816L236.014 60.024L237.939 60.5664C238.339 59.1446 238.574 57.713 238.64 56.2744L236.642 56.184ZM236.014 60.024L234.089 59.4816L233.953 59.9616L235.878 60.504L237.804 61.0464L237.939 60.5664L236.014 60.024ZM235.878 60.504L233.953 59.9616L233.818 60.4416L235.743 60.984L237.668 61.5264L237.804 61.0464L235.878 60.504ZM235.743 60.984L233.818 60.4416C233.399 61.9282 233.23 63.4313 233.319 64.9422L235.316 64.824L237.312 64.7059C237.25 63.6567 237.366 62.5998 237.668 61.5264L235.743 60.984ZM235.316 64.824L233.319 64.9422L233.348 65.4222L235.344 65.304L237.341 65.1859L237.312 64.7059L235.316 64.824ZM235.344 65.304L233.348 65.4222L233.376 65.9022L235.373 65.784L237.369 65.6659L237.341 65.1859L235.344 65.304ZM235.373 65.784L233.376 65.9022C233.46 67.311 233.679 68.7153 234.032 70.1133L235.971 69.624L237.91 69.1347C237.617 67.9728 237.437 66.817 237.369 65.6659L235.373 65.784ZM235.971 69.624L234.032 70.1133L234.153 70.5933L236.092 70.104L238.031 69.6147L237.91 69.1347L235.971 69.624ZM236.092 70.104L234.153 70.5933L234.274 71.0733L236.213 70.584L238.152 70.0947L238.031 69.6147L236.092 70.104ZM236.213 70.584L234.274 71.0733C234.558 72.201 234.701 73.3195 234.705 74.4323L236.705 74.424L238.705 74.4157C238.699 72.9685 238.514 71.5271 238.152 70.0947L236.213 70.584ZM236.705 74.424L234.705 74.4323L234.707 74.9123L236.707 74.904L238.707 74.8957L238.705 74.4157L236.705 74.424ZM236.707 74.904L234.707 74.9123L234.709 75.3923L236.709 75.384L238.709 75.3757L238.707 74.8957L236.707 74.904ZM236.709 75.384L234.709 75.3923C234.714 76.5534 234.616 77.7164 234.414 78.8826L236.385 79.224L238.355 79.5654C238.597 78.1717 238.715 76.7747 238.709 75.3757L236.709 75.384ZM236.385 79.224L234.414 78.8826L234.331 79.3626L236.302 79.704L238.272 80.0454L238.355 79.5654L236.385 79.224ZM236.302 79.704L234.331 79.3626L234.248 79.8426L236.218 80.184L238.189 80.5254L238.272 80.0454L236.302 79.704ZM236.218 80.184L234.248 79.8426C234.175 80.2652 234.072 80.3879 234.076 80.3827C234.083 80.3749 234.104 80.3537 234.138 80.336C234.169 80.3193 234.178 80.323 234.143 80.3279L234.419 82.3087L234.696 84.2895C235.638 84.158 236.489 83.7224 237.129 82.9677C237.733 82.2542 238.04 81.3829 238.189 80.5254L236.218 80.184ZM234.419 82.3087L234.143 80.3279L233.776 80.379L234.053 82.3598L234.329 84.3406L234.696 84.2895L234.419 82.3087ZM234.053 82.3598L233.776 80.379L233.409 80.4302L233.686 82.411L233.962 84.3918L234.329 84.3406L234.053 82.3598ZM233.686 82.411L233.409 80.4302C232.58 80.5459 231.576 80.5868 230.383 80.5367L230.299 82.5349L230.215 84.5332C231.582 84.5906 232.836 84.5489 233.962 84.3918L233.686 82.411ZM230.299 82.5349L230.383 80.5367L229.903 80.5165L229.819 82.5148L229.735 84.513L230.215 84.5332L230.299 82.5349ZM229.819 82.5148L229.903 80.5165L229.423 80.4964L229.339 82.4946L229.255 84.4928L229.735 84.513L229.819 82.5148ZM229.339 82.4946L229.423 80.4964C228.146 80.4427 226.868 80.3867 225.591 80.3283L225.499 82.3262L225.408 84.3242C226.69 84.3827 227.973 84.4389 229.255 84.4928L229.339 82.4946ZM225.499 82.3262L225.591 80.3283L225.111 80.3064L225.019 82.3043L224.928 84.3022L225.408 84.3242L225.499 82.3262ZM225.019 82.3043L225.111 80.3064L224.631 80.2845L224.539 82.2824L224.448 84.2803L224.928 84.3022L225.019 82.3043ZM224.539 82.2824L224.631 80.2845C223.263 80.222 221.896 80.2491 220.53 80.3654L220.699 82.3582L220.869 84.351C222.062 84.2494 223.255 84.2258 224.448 84.2803L224.539 82.2824ZM220.699 82.3582L220.53 80.3654L220.05 80.4063L220.219 82.3991L220.389 84.3919L220.869 84.351L220.699 82.3582ZM220.219 82.3991L220.05 80.4063L219.57 80.4472L219.739 82.44L219.909 84.4328L220.389 84.3919L220.219 82.3991ZM219.739 82.44L219.57 80.4472C218.367 80.5496 217.166 80.5813 215.964 80.5424L215.899 82.5413L215.835 84.5403C217.193 84.5843 218.551 84.5484 219.909 84.4328L219.739 82.44ZM215.899 82.5413L215.964 80.5424L215.484 80.5268L215.419 82.5258L215.355 84.5247L215.835 84.5403L215.899 82.5413ZM215.419 82.5258L215.484 80.5268L215.004 80.5113L214.939 82.5102L214.875 84.5092L215.355 84.5247L215.419 82.5258ZM214.939 82.5102L215.004 80.5113C213.773 80.4714 212.542 80.3863 211.31 80.2559L211.099 82.2448L210.889 84.2337C212.217 84.3743 213.546 84.4661 214.875 84.5092L214.939 82.5102ZM211.099 82.2448L211.31 80.2559L210.83 80.2051L210.619 82.194L210.409 84.1829L210.889 84.2337L211.099 82.2448ZM210.619 82.194L210.83 80.2051L210.35 80.1543L210.139 82.1432L209.929 84.132L210.409 84.1829L210.619 82.194ZM210.139 82.1432L210.35 80.1543C208.805 79.9907 207.266 80.1329 205.747 80.5692L206.299 82.4915L206.851 84.4137C207.893 84.1146 208.914 84.0246 209.929 84.132L210.139 82.1432ZM206.299 82.4915L205.747 80.5692L205.267 80.7071L205.819 82.6294L206.371 84.5516L206.851 84.4137L206.299 82.4915ZM205.819 82.6294L205.267 80.7071L204.787 80.845L205.339 82.7673L205.891 84.6895L206.371 84.5516L205.819 82.6294ZM205.339 82.7673L204.787 80.845C203.592 81.1884 202.4 81.4456 201.212 81.6177L201.499 83.5971L201.786 85.5764C203.158 85.3775 204.527 85.0815 205.891 84.6895L205.339 82.7673ZM201.499 83.5971L201.212 81.6177L200.732 81.6873L201.019 83.6666L201.306 85.646L201.786 85.5764L201.499 83.5971ZM201.019 83.6666L200.732 81.6873L200.252 81.7569L200.539 83.7362L200.826 85.7155L201.306 85.646L201.019 83.6666ZM200.539 83.7362L200.252 81.7569C199.14 81.9181 198.031 81.9365 196.921 81.8127L196.699 83.8004L196.478 85.7881C197.928 85.9497 199.378 85.9253 200.826 85.7155L200.539 83.7362ZM196.699 83.8004L196.921 81.8127L196.441 81.7592L196.219 83.7469L195.998 85.7346L196.478 85.7881L196.699 83.8004ZM196.219 83.7469L196.441 81.7592L195.961 81.7057L195.739 83.6934L195.518 85.6811L195.998 85.7346L196.219 83.7469ZM195.739 83.6934L195.961 81.7057C194.626 81.5569 193.291 81.4638 191.955 81.4265L191.899 83.4257L191.843 85.4249C193.068 85.4591 194.292 85.5445 195.518 85.6811L195.739 83.6934ZM191.899 83.4257L191.955 81.4265L191.475 81.4131L191.419 83.4123L191.363 85.4115L191.843 85.4249L191.899 83.4257ZM191.419 83.4123L191.475 81.4131L190.995 81.3996L190.939 83.3989L190.883 85.3981L191.363 85.4115L191.419 83.4123ZM190.939 83.3989L190.995 81.3996C189.672 81.3627 188.348 81.3687 187.025 81.4178L187.099 83.4164L187.173 85.4151C188.41 85.3692 189.647 85.3635 190.883 85.3981L190.939 83.3989ZM187.099 83.4164L187.025 81.4178L186.545 81.4356L186.619 83.4342L186.693 85.4329L187.173 85.4151L187.099 83.4164ZM186.619 83.4342L186.545 81.4356L186.065 81.4534L186.139 83.452L186.213 85.4507L186.693 85.4329L186.619 83.4342ZM186.139 83.452L186.065 81.4534C184.803 81.5002 183.541 81.5302 182.279 81.5433L182.299 83.5432L182.32 85.5431C183.618 85.5296 184.916 85.4988 186.213 85.4507L186.139 83.452ZM182.299 83.5432L182.279 81.5433L181.799 81.5482L181.819 83.5481L181.84 85.548L182.32 85.5431L182.299 83.5432ZM181.819 83.5481L181.799 81.5482L181.319 81.5532L181.339 83.5531L181.36 85.553L181.84 85.548L181.819 83.5481ZM181.339 83.5531L181.319 81.5532C180.216 81.5646 179.108 81.4313 177.99 81.1485L177.499 83.0874L177.009 85.0263C178.451 85.391 179.902 85.5681 181.36 85.553L181.339 83.5531ZM177.499 83.0874L177.99 81.1485L177.51 81.0271L177.019 82.966L176.529 84.9049L177.009 85.0263L177.499 83.0874ZM177.019 82.966L177.51 81.0271L177.03 80.9056L176.539 82.8446L176.049 84.7835L176.529 84.9049L177.019 82.966ZM176.539 82.8446L177.03 80.9056C175.454 80.507 173.861 80.4765 172.278 80.8181L172.699 82.7731L173.121 84.7282C174.097 84.5176 175.065 84.5347 176.049 84.7835L176.539 82.8446ZM172.699 82.7731L172.278 80.8181L171.798 80.9216L172.219 82.8767L172.641 84.8317L173.121 84.7282L172.699 82.7731ZM172.219 82.8767L171.798 80.9216L171.318 81.0251L171.739 82.9802L172.161 84.9352L172.641 84.8317L172.219 82.8767ZM171.739 82.9802L171.318 81.0251C170.204 81.2653 169.099 81.3568 167.997 81.3031L167.899 83.3008L167.802 85.2984C169.26 85.3694 170.714 85.2473 172.161 84.9352L171.739 82.9802ZM167.899 83.3008L167.997 81.3031L167.517 81.2798L167.419 83.2774L167.322 85.275L167.802 85.2984L167.899 83.3008ZM167.419 83.2774L167.517 81.2798L167.037 81.2564L166.939 83.254L166.842 85.2516L167.322 85.275L167.419 83.2774ZM166.939 83.254L167.037 81.2564C165.713 81.1919 164.389 81.171 163.065 81.1938L163.099 83.1935L163.134 85.1932C164.37 85.172 165.606 85.1914 166.842 85.2516L166.939 83.254ZM163.099 83.1935L163.065 81.1938L162.585 81.2021L162.619 83.2018L162.654 85.2015L163.134 85.1932L163.099 83.1935ZM162.619 83.2018L162.585 81.2021L162.105 81.2104L162.139 83.2101L162.174 85.2098L162.654 85.2015L162.619 83.2018ZM162.139 83.2101L162.105 81.2104C160.859 81.2318 159.613 81.2216 158.367 81.1797L158.299 83.1785L158.232 85.1774C159.546 85.2216 160.86 85.2324 162.174 85.2098L162.139 83.2101ZM158.299 83.1785L158.367 81.1797L157.887 81.1635L157.819 83.1624L157.752 85.1612L158.232 85.1774L158.299 83.1785ZM157.819 83.1624L157.887 81.1635L157.407 81.1473L157.339 83.1462L157.272 85.1451L157.752 85.1612L157.819 83.1624ZM157.339 83.1462L157.407 81.1473C156.217 81.1073 155.026 80.9867 153.832 80.7851L153.499 82.7572L153.166 84.7292C154.533 84.9602 155.902 85.099 157.272 85.1451L157.339 83.1462ZM153.499 82.7572L153.832 80.7851L153.352 80.704L153.019 82.6761L152.686 84.6481L153.166 84.7292L153.499 82.7572ZM153.019 82.6761L153.352 80.704L152.872 80.6229L152.539 82.595L152.206 84.567L152.686 84.6481L153.019 82.6761ZM152.539 82.595L152.872 80.6229C151.193 80.3392 149.531 80.5581 147.927 81.2299L148.699 83.0746L149.472 84.9194C150.428 84.519 151.325 84.4182 152.206 84.567L152.539 82.595ZM148.699 83.0746L147.927 81.2299L147.447 81.4309L148.219 83.2757L148.992 85.1204L149.472 84.9194L148.699 83.0746ZM148.219 83.2757L147.447 81.4309L146.967 81.6319L147.739 83.4767L148.512 85.3214L148.992 85.1204L148.219 83.2757ZM147.739 83.4767L146.967 81.6319C146.21 81.9487 145.512 81.9406 144.732 81.5834L143.899 83.4019L143.067 85.2204C144.846 86.035 146.708 86.0768 148.512 85.3214L147.739 83.4767ZM143.899 83.4019L144.732 81.5834L144.252 81.3636L143.419 83.1822L142.587 85.0007L143.067 85.2204L143.899 83.4019ZM143.419 83.1822L144.252 81.3636L143.772 81.1439L142.939 82.9625L142.107 84.781L142.587 85.0007L143.419 83.1822ZM142.939 82.9625L143.772 81.1439C142.245 80.4452 140.667 80.0906 139.057 80.1248L139.099 82.1244L139.142 84.1239C140.091 84.1038 141.073 84.308 142.107 84.781L142.939 82.9625ZM139.099 82.1244L139.057 80.1248L138.577 80.135L138.619 82.1346L138.662 84.1341L139.142 84.1239L139.099 82.1244ZM138.619 82.1346L138.577 80.135L138.097 80.1452L138.139 82.1447L138.182 84.1443L138.662 84.1341L138.619 82.1346ZM138.139 82.1447L138.097 80.1452C136.695 80.175 135.295 80.3327 133.9 80.6169L134.299 82.5766L134.698 84.5364C135.863 84.2991 137.024 84.1689 138.182 84.1443L138.139 82.1447ZM134.299 82.5766L133.9 80.6169L133.42 80.7147L133.819 82.6744L134.218 84.6342L134.698 84.5364L134.299 82.5766ZM133.819 82.6744L133.42 80.7147L132.94 80.8124L133.339 82.7722L133.739 84.7319L134.218 84.6342L133.819 82.6744ZM133.339 82.7722L132.94 80.8124C131.684 81.0683 130.428 81.3003 129.172 81.5084L129.499 83.4815L129.826 85.4546C131.131 85.2384 132.435 84.9975 133.739 84.7319L133.339 82.7722ZM129.499 83.4815L129.172 81.5084L128.692 81.588L129.019 83.5611L129.346 85.5341L129.826 85.4546L129.499 83.4815ZM129.019 83.5611L128.692 81.588L128.212 81.6675L128.539 83.6406L128.866 85.6137L129.346 85.5341L129.019 83.5611ZM128.539 83.6406L128.212 81.6675C127.04 81.8618 125.87 81.9576 124.702 81.9558L124.699 83.9558L124.696 85.9558C126.088 85.958 127.479 85.8437 128.866 85.6137L128.539 83.6406ZM124.699 83.9558L124.702 81.9558L124.222 81.955L124.219 83.955L124.216 85.955L124.696 85.9558L124.699 83.9558ZM124.219 83.955L124.222 81.955L123.742 81.9542L123.739 83.9542L123.736 85.9542L124.216 85.955L124.219 83.955ZM123.739 83.9542L123.742 81.9542C122.443 81.9522 121.144 81.9689 119.845 82.0045L119.899 84.0037L119.954 86.003C121.215 85.9685 122.475 85.9522 123.736 85.9542L123.739 83.9542ZM119.899 84.0037L119.845 82.0045L119.365 82.0176L119.419 84.0169L119.474 86.0161L119.954 86.003L119.899 84.0037ZM119.419 84.0169L119.365 82.0176L118.885 82.0308L118.939 84.03L118.994 86.0293L119.474 86.0161L119.419 84.0169ZM118.939 84.03L118.885 82.0308C117.892 82.0579 116.879 81.8789 115.83 81.4673L115.099 83.3291L114.369 85.1909C115.88 85.7839 117.426 86.0722 118.994 86.0293L118.939 84.03ZM115.099 83.3291L115.83 81.4673L115.35 81.279L114.619 83.1407L113.889 85.0025L114.369 85.1909L115.099 83.3291ZM114.619 83.1407L115.35 81.279L114.87 81.0906L114.139 82.9524L113.409 84.8141L113.889 85.0025L114.619 83.1407ZM114.139 82.9524L114.87 81.0906C113.286 80.4689 111.653 80.261 110.006 80.5056L110.299 82.4839L110.593 84.4623C111.505 84.3268 112.433 84.4312 113.409 84.8141L114.139 82.9524ZM110.299 82.4839L110.006 80.5056L109.526 80.5769L109.819 82.5552L110.113 84.5335L110.593 84.4623L110.299 82.4839ZM109.819 82.5552L109.526 80.5769L109.046 80.6482L109.339 82.6265L109.633 84.6048L110.113 84.5335L109.819 82.5552ZM109.339 82.6265L109.046 80.6482C107.923 80.8148 106.804 80.8454 105.685 80.7409L105.499 82.7322L105.313 84.7236C106.754 84.8581 108.195 84.8182 109.633 84.6048L109.339 82.6265ZM105.499 82.7322L105.685 80.7409L105.205 80.6961L105.019 82.6874L104.833 84.6787L105.313 84.7236L105.499 82.7322ZM105.019 82.6874L105.205 80.6961L104.725 80.6513L104.539 82.6426L104.353 84.6339L104.833 84.6787L105.019 82.6874ZM104.539 82.6426L104.725 80.6513C103.296 80.5178 101.866 80.5453 100.438 80.7334L100.699 82.7163L100.961 84.6991C102.093 84.5499 103.223 84.5284 104.353 84.6339L104.539 82.6426ZM100.699 82.7163L100.438 80.7334L99.958 80.7967L100.219 82.7795L100.481 84.7624L100.961 84.6991L100.699 82.7163ZM100.219 82.7795L99.958 80.7967L99.478 80.8599L99.7393 82.8428L100.001 84.8256L100.481 84.7624L100.219 82.7795ZM99.7393 82.8428L99.478 80.8599C98.3229 81.0121 97.1699 81.0539 96.0173 80.9857L95.8993 82.9823L95.7812 84.9788C97.1887 85.062 98.5957 85.0108 100.001 84.8256L99.7393 82.8428ZM95.8993 82.9823L96.0173 80.9857L95.5373 80.9574L95.4193 82.9539L95.3012 84.9504L95.7812 84.9788L95.8993 82.9823ZM95.4193 82.9539L95.5373 80.9574L95.0573 80.929L94.9393 82.9255L94.8212 84.922L95.3012 84.9504L95.4193 82.9539ZM94.9393 82.9255L95.0573 80.929C93.5559 80.8402 92.0612 80.9983 90.5809 81.3955L91.0993 83.3272L91.6176 85.2589C92.6974 84.9691 93.7626 84.8594 94.8212 84.922L94.9393 82.9255ZM91.0993 83.3272L90.5809 81.3955L90.1009 81.5243L90.6193 83.456L91.1376 85.3876L91.6176 85.2589L91.0993 83.3272ZM90.6193 83.456L90.1009 81.5243L89.6209 81.6531L90.1393 83.5848L90.6576 85.5165L91.1376 85.3876L90.6193 83.456ZM90.1393 83.5848L89.6209 81.6531C88.7955 81.8746 87.9734 81.8215 87.0829 81.4422L86.2993 83.2823L85.5156 85.1224C87.1852 85.8334 88.923 85.9819 90.6576 85.5165L90.1393 83.5848ZM86.2993 83.2823L87.0829 81.4422L86.6029 81.2378L85.8193 83.0779L85.0356 84.918L85.5156 85.1224L86.2993 83.2823ZM85.8193 83.0779L86.6029 81.2378L86.1229 81.0334L85.3393 82.8735L84.5556 84.7136L85.0356 84.918L85.8193 83.0779ZM85.3393 82.8735L86.1229 81.0334C84.4219 80.309 82.6512 80.2008 80.8986 80.7527L81.4993 82.6604L82.1 84.568C82.9073 84.3138 83.6967 84.3478 84.5556 84.7136L85.3393 82.8735ZM81.4993 82.6604L80.8986 80.7527L80.4186 80.9039L81.0193 82.8115L81.62 84.7192L82.1 84.568L81.4993 82.6604ZM81.0193 82.8115L80.4186 80.9039L79.9386 81.055L80.5393 82.9627L81.14 84.8703L81.62 84.7192L81.0193 82.8115ZM80.5393 82.9627L79.9386 81.055C78.9133 81.3778 77.9138 81.4753 76.9227 81.3639L76.6993 83.3514L76.4758 85.3388C78.0447 85.5152 79.6052 85.3536 81.14 84.8703L80.5393 82.9627ZM76.6993 83.3514L76.9227 81.3639L76.4427 81.3099L76.2193 83.2974L75.9958 85.2849L76.4758 85.3388L76.6993 83.3514ZM76.2193 83.2974L76.4427 81.3099L75.9627 81.256L75.7393 83.2434L75.5158 85.2309L75.9958 85.2849L76.2193 83.2974ZM75.7393 83.2434L75.9627 81.256C74.6344 81.1066 73.3057 81.0062 71.9766 80.9548L71.8993 82.9533L71.822 84.9518C73.0529 84.9994 74.2841 85.0924 75.5158 85.2309L75.7393 83.2434ZM71.8993 82.9533L71.9766 80.9548L71.4965 80.9363L71.4193 82.9348L71.342 84.9333L71.822 84.9518L71.8993 82.9533ZM71.4193 82.9348L71.4965 80.9363L71.0165 80.9177L70.9393 82.9162L70.862 84.9147L71.342 84.9333L71.4193 82.9348ZM70.9393 82.9162L71.0165 80.9177C69.5338 80.8604 68.0575 81.0262 66.5936 81.4087L67.0993 83.3437L67.6049 85.2787C68.7011 84.9923 69.7848 84.8731 70.862 84.9147L70.9393 82.9162ZM67.0993 83.3437L66.5936 81.4087L66.1136 81.5341L66.6193 83.4692L67.1249 85.4042L67.6049 85.2787L67.0993 83.3437ZM66.6193 83.4692L66.1136 81.5341L65.6336 81.6596L66.1393 83.5946L66.6449 85.5296L67.1249 85.4042L66.6193 83.4692ZM66.1393 83.5946L65.6336 81.6596C64.652 81.9161 63.688 81.938 62.7164 81.7308L62.2993 83.6868L61.8821 85.6429C63.4706 85.9816 65.0666 85.9421 66.6449 85.5296L66.1393 83.5946ZM62.2993 83.6868L62.7164 81.7308L62.2364 81.6285L61.8193 83.5845L61.4021 85.5405L61.8821 85.6429L62.2993 83.6868ZM61.8193 83.5845L62.2364 81.6285L61.7564 81.5261L61.3393 83.4821L60.9221 85.4381L61.4021 85.5405L61.8193 83.5845ZM61.3393 83.4821L61.7564 81.5261C60.3637 81.2291 58.9666 81.0563 57.5663 81.0094L57.4993 83.0082L57.4322 85.0071C58.5919 85.046 59.7548 85.1892 60.9221 85.4381L61.3393 83.4821ZM57.4993 83.0082L57.5663 81.0094L57.0863 80.9933L57.0193 82.9921L56.9522 84.991L57.4322 85.0071L57.4993 83.0082ZM57.0193 82.9921L57.0863 80.9933L56.6063 80.9772L56.5393 82.976L56.4722 84.9749L56.9522 84.991L57.0193 82.9921ZM56.5393 82.976L56.6063 80.9772C55.4381 80.938 54.2674 80.8011 53.0929 80.5653L52.6993 82.5262L52.3056 84.4871C53.6912 84.7652 55.0804 84.9282 56.4722 84.9749L56.5393 82.976ZM52.6993 82.5262L53.0929 80.5653L52.6129 80.469L52.2193 82.4299L51.8256 84.3907L52.3056 84.4871L52.6993 82.5262ZM52.2193 82.4299L52.6129 80.469L52.1329 80.3726L51.7393 82.3335L51.3456 84.2944L51.8256 84.3907L52.2193 82.4299ZM51.7393 82.3335L52.1329 80.3726C50.4977 80.0443 48.8626 80.1596 47.2626 80.6968L47.8993 82.5928L48.5359 84.4887C49.496 84.1664 50.4209 84.1087 51.3456 84.2944L51.7393 82.3335ZM47.8993 82.5928L47.2626 80.6968L46.7826 80.858L47.4193 82.754L48.0559 84.6499L48.5359 84.4887L47.8993 82.5928ZM47.4193 82.754L46.7826 80.858L46.3026 81.0192L46.9393 82.9151L47.5759 84.8111L48.0559 84.6499L47.4193 82.754ZM46.9393 82.9151L46.3026 81.0192C45.234 81.378 44.1888 81.5349 43.1573 81.505L43.0993 83.5041L43.0413 85.5033C44.5697 85.5476 46.0846 85.3119 47.5759 84.8111L46.9393 82.9151ZM43.0993 83.5041L43.1573 81.505L42.6773 81.491L42.6193 83.4902L42.5613 85.4894L43.0413 85.5033L43.0993 83.5041ZM42.6193 83.4902L42.6773 81.491L42.1973 81.4771L42.1393 83.4763L42.0813 85.4754L42.5613 85.4894L42.6193 83.4902ZM42.1393 83.4763L42.1973 81.4771C41.0032 81.4425 39.8079 81.3309 38.6109 81.1421L38.2993 83.1177L37.9877 85.0933C39.3506 85.3083 40.7153 85.4358 42.0813 85.4754L42.1393 83.4763ZM38.2993 83.1177L38.6109 81.1421L38.1309 81.0664L37.8193 83.042L37.5077 85.0176L37.9877 85.0933L38.2993 83.1177ZM37.8193 83.042L38.1309 81.0664L37.6509 80.9907L37.3393 82.9663L37.0277 84.9419L37.5077 85.0176L37.8193 83.042ZM37.3393 82.9663L37.6509 80.9907C36.3242 80.7814 34.9969 80.6202 33.669 80.5071L33.4993 82.4999L33.3295 84.4927C34.5616 84.5976 35.7943 84.7473 37.0277 84.9419L37.3393 82.9663ZM33.4993 82.4999L33.669 80.5071L33.189 80.4662L33.0193 82.459L32.8495 84.4518L33.3295 84.4927L33.4993 82.4999ZM33.0193 82.459L33.189 80.4662L32.709 80.4253L32.5393 82.4181L32.3695 84.4109L32.8495 84.4518L33.0193 82.459ZM32.5393 82.4181L32.709 80.4253C31.3343 80.3082 29.959 80.2894 28.5837 80.369L28.6993 82.3656L28.8148 84.3623C29.9995 84.2937 31.1842 84.3099 32.3695 84.4109L32.5393 82.4181ZM28.6993 82.3656L28.5837 80.369L28.1037 80.3967L28.2193 82.3934L28.3348 84.3901L28.8148 84.3623L28.6993 82.3656ZM28.2193 82.3934L28.1037 80.3967L27.6237 80.4245L27.7393 82.4212L27.8548 84.4178L28.3348 84.3901L28.2193 82.3934ZM27.7393 82.4212L27.6237 80.4245C26.269 80.5029 24.9154 80.6574 23.5634 80.8877L23.8993 82.8593L24.2351 84.8309C25.4431 84.6251 26.6496 84.4876 27.8548 84.4178L27.7393 82.4212ZM23.8993 82.8593L23.5634 80.8877L23.0834 80.9695L23.4193 82.9411L23.7551 84.9127L24.2351 84.8309L23.8993 82.8593ZM23.4193 82.9411L23.0834 80.9695L22.6034 81.0513L22.9393 83.0229L23.2751 84.9945L23.7551 84.9127L23.4193 82.9411ZM22.9393 83.0229L22.6034 81.0513C21.3875 81.2584 20.1729 81.4044 18.9593 81.4895L19.0993 83.4846L19.2392 85.4797C20.5857 85.3853 21.931 85.2234 23.2751 84.9945L22.9393 83.0229ZM19.0993 83.4846L18.9593 81.4895L18.4793 81.5232L18.6193 83.5183L18.7592 85.5134L19.2392 85.4797L19.0993 83.4846ZM18.6193 83.5183L18.4793 81.5232L17.9993 81.5569L18.1393 83.552L18.2792 85.5471L18.7592 85.5134L18.6193 83.5183ZM18.1393 83.552L17.9993 81.5569C16.7207 81.6466 15.4421 81.7349 14.1634 81.822L14.2993 83.8174L14.4351 85.8128C15.7165 85.7255 16.9979 85.6369 18.2792 85.5471L18.1393 83.552ZM14.2993 83.8174L14.1634 81.822L13.6834 81.8547L13.8193 83.8501L13.9551 85.8454L14.4351 85.8128L14.2993 83.8174ZM13.8193 83.8501L13.6834 81.8547L13.2034 81.8874L13.3393 83.8827L13.4751 85.8781L13.9551 85.8454L13.8193 83.8501ZM13.3393 83.8827L13.2034 81.8874C12.2342 81.9533 11.2453 81.8032 10.2182 81.4075L9.49927 83.2738L8.78031 85.1401C10.3133 85.7307 11.8844 85.9864 13.4751 85.8781L13.3393 83.8827ZM9.49927 83.2738L10.2182 81.4075L9.73823 81.2226L9.01927 83.0889L8.30031 84.9552L8.78031 85.1401L9.49927 83.2738ZM9.01927 83.0889L9.73823 81.2226L9.25823 81.0377L8.53927 82.904L7.82031 84.7703L8.30031 84.9552L9.01927 83.0889ZM8.53927 82.904L9.25823 81.0377C7.81042 80.4799 6.36315 80.1463 4.92339 80.0635L4.80854 82.0602L4.6937 84.0569C5.66823 84.113 6.70812 84.3419 7.82031 84.7703L8.53927 82.904ZM4.80854 82.0602L4.92339 80.0635L4.4707 80.0375L4.35586 82.0342L4.24102 84.0309L4.6937 84.0569L4.80854 82.0602ZM4.35586 82.0342L4.4707 80.0375L4.01802 80.0114L3.90318 82.0081L3.78834 84.0048L4.24102 84.0309L4.35586 82.0342ZM3.90318 82.0081L4.01802 80.0114C3.8864 80.0039 3.86452 79.9842 3.90879 80.0031C3.93311 80.0135 3.97349 80.034 4.02155 80.0697C4.07032 80.106 4.11859 80.1518 4.16146 80.2057C4.25151 80.319 4.27544 80.4135 4.27846 80.4282C4.27957 80.4336 4.26554 80.3652 4.28362 80.1934L2.29462 79.984L0.305613 79.7746C0.210073 80.6819 0.305355 81.7826 1.02989 82.6943C1.7771 83.6346 2.85271 83.951 3.78834 84.0048L3.90318 82.0081ZM2.29462 79.984L4.28362 80.1934L4.33416 79.7134L2.34516 79.504L0.356154 79.2945L0.305613 79.7746L2.29462 79.984ZM2.34516 79.504L4.33416 79.7134L4.3847 79.2334L2.3957 79.024L0.406695 78.8146L0.356154 79.2945L2.34516 79.504ZM2.3957 79.024L4.3847 79.2334C4.52774 77.8749 4.58978 76.5156 4.57063 75.1558L2.57083 75.184L0.571027 75.2121C0.587928 76.4124 0.533208 77.613 0.406695 78.8146L2.3957 79.024ZM2.57083 75.184L4.57063 75.1558L4.56387 74.6758L2.56407 74.704L0.564268 74.7321L0.571027 75.2121L2.57083 75.184ZM2.56407 74.704L4.56387 74.6758L4.55711 74.1958L2.55731 74.224L0.557509 74.2521L0.564268 74.7321L2.56407 74.704ZM2.55731 74.224L4.55711 74.1958C4.54044 73.0119 4.60876 71.8272 4.76245 70.641L2.77903 70.384L0.795606 70.127C0.617624 71.5008 0.538132 72.876 0.557509 74.2521L2.55731 74.224ZM2.77903 70.384L4.76245 70.641L4.82464 70.1609L2.84122 69.904L0.857795 69.647L0.795606 70.127L2.77903 70.384ZM2.84122 69.904L4.82464 70.1609L4.88683 69.681L2.90341 69.424L0.919983 69.167L0.857795 69.647L2.84122 69.904ZM2.90341 69.424L4.88683 69.681C5.07248 68.248 5.09141 66.8128 4.94326 65.3785L2.95384 65.584L0.964428 65.7895C1.0807 66.9151 1.066 68.0399 0.919983 69.167L2.90341 69.424ZM2.95384 65.584L4.94326 65.3785L4.89368 64.8985L2.90427 65.104L0.91485 65.3095L0.964428 65.7895L2.95384 65.584ZM2.90427 65.104L4.89368 64.8985L4.8441 64.4185L2.85469 64.624L0.865271 64.8295L0.91485 65.3095L2.90427 65.104ZM2.85469 64.624L4.8441 64.4185C4.73135 63.3269 4.77257 62.235 4.96966 61.1375L3.00114 60.784L1.03263 60.4305C0.770019 61.8929 0.713603 63.3611 0.865271 64.8295L2.85469 64.624ZM3.00114 60.784L4.96966 61.1375L5.05585 60.6575L3.08733 60.304L1.11882 59.9505L1.03263 60.4305L3.00114 60.784ZM3.08733 60.304L5.05585 60.6575L5.14204 60.1775L3.17353 59.824L1.20501 59.4705L1.11882 59.9505L3.08733 60.304ZM3.17353 59.824L5.14204 60.1775C5.40787 58.6971 5.44492 57.2108 5.25157 55.7258L3.26831 55.984L1.28505 56.2422C1.42502 57.3172 1.39887 58.3909 1.20501 59.4705L3.17353 59.824ZM3.26831 55.984L5.25157 55.7258L5.18907 55.2458L3.20581 55.504L1.22255 55.7622L1.28505 56.2422L3.26831 55.984ZM3.20581 55.504L5.18907 55.2458L5.12658 54.7658L3.14332 55.024L1.16006 55.2822L1.22255 55.7622L3.20581 55.504ZM3.14332 55.024L5.12658 54.7658C4.99355 53.7441 5.0564 52.7202 5.32291 51.6807L3.38556 51.184L1.44822 50.6873C1.05842 52.2078 0.959768 53.7439 1.16006 55.2822L3.14332 55.024ZM3.38556 51.184L5.32291 51.6807L5.44597 51.2007L3.50862 50.704L1.57127 50.2073L1.44822 50.6873L3.38556 51.184ZM3.50862 50.704L5.44597 51.2007L5.56902 50.7207L3.63168 50.224L1.69433 49.7273L1.57127 50.2073L3.50862 50.704ZM3.63168 50.224L5.56902 50.7207C6.00851 49.0064 5.87045 47.2891 5.19777 45.6318L3.3446 46.384L1.49144 47.1362C1.85783 48.0389 1.91116 48.8816 1.69433 49.7273L3.63168 50.224ZM3.3446 46.384L5.19777 45.6318L5.00294 45.1518L3.14977 45.904L1.29661 46.6562L1.49144 47.1362L3.3446 46.384ZM3.14977 45.904L5.00294 45.1518L4.80811 44.6718L2.95495 45.424L1.10178 46.1762L1.29661 46.6562L3.14977 45.904ZM2.95495 45.424L4.80811 44.6718C4.48668 43.8799 4.48862 43.1446 4.81796 42.3484L2.96982 41.584L1.12169 40.8195C0.392117 42.5833 0.384134 44.4081 1.10178 46.1762L2.95495 45.424ZM2.96982 41.584L4.81796 42.3484L5.0165 41.8684L3.16837 41.104L1.32023 40.3395L1.12169 40.8195L2.96982 41.584ZM3.16837 41.104L5.0165 41.8684L5.21505 41.3884L3.36691 40.624L1.51878 39.8595L1.32023 40.3395L3.16837 41.104ZM3.36691 40.624L5.21505 41.3884C5.84686 39.861 6.14491 38.291 6.07498 36.6964L4.0769 36.784L2.07882 36.8716C2.12115 37.8369 1.94587 38.827 1.51878 39.8595L3.36691 40.624ZM4.0769 36.784L6.07498 36.6964L6.05393 36.2164L4.05585 36.304L2.05777 36.3916L2.07882 36.8716L4.0769 36.784ZM4.05585 36.304L6.05393 36.2164L6.03288 35.7364L4.0348 35.824L2.03672 35.9116L2.05777 36.3916L4.05585 36.304ZM4.0348 35.824L6.03288 35.7364C5.96522 34.1935 5.59927 32.6759 4.96037 31.1927L3.12354 31.984L1.28671 32.7752C1.75055 33.852 1.99211 34.8944 2.03672 35.9116L4.0348 35.824ZM3.12354 31.984L4.96037 31.1927L4.7536 30.7127L2.91677 31.504L1.07994 32.2952L1.28671 32.7752L3.12354 31.984ZM2.91677 31.504L4.7536 30.7127L4.54684 30.2327L2.71001 31.024L0.873176 31.8152L1.07994 32.2952L2.91677 31.504ZM2.71001 31.024L4.54684 30.2327C4.11091 29.2207 3.94796 28.2596 4.01429 27.3257L2.01932 27.184L0.0243444 27.0423C-0.0911517 28.6684 0.206358 30.2672 0.873176 31.8152L2.71001 31.024ZM2.01932 27.184L4.01429 27.3257L4.04839 26.8457L2.05341 26.704L0.0584373 26.5623L0.0243444 27.0423L2.01932 27.184ZM2.05341 26.704L4.04839 26.8457L4.08248 26.3657L2.0875 26.224L0.0925303 26.0823L0.0584373 26.5623L2.05341 26.704ZM2.0875 26.224L4.08248 26.3657C4.16864 25.1526 4.31608 23.9384 4.52507 22.7229L2.554 22.384L0.582919 22.0451C0.351748 23.3896 0.188195 24.7354 0.0925303 26.0823L2.0875 26.224ZM2.554 22.384L4.52507 22.7229L4.6076 22.2429L2.63653 21.904L0.665449 21.5651L0.582919 22.0451L2.554 22.384ZM2.63653 21.904L4.6076 22.2429L4.69013 21.7629L2.71906 21.424L0.747979 21.0851L0.665449 21.5651L2.63653 21.904ZM2.71906 21.424L4.69013 21.7629C4.90536 20.5111 5.14831 19.259 5.41901 18.0065L3.46414 17.584L1.50928 17.1615C1.22669 18.469 0.97291 19.7769 0.747979 21.0851L2.71906 21.424ZM3.46414 17.584L5.41901 18.0065L5.52275 17.5265L3.56788 17.104L1.61302 16.6815L1.50928 17.1615L3.46414 17.584ZM3.56788 17.104L5.52275 17.5265L5.62649 17.0465L3.67163 16.624L1.71676 16.2015L1.61302 16.6815L3.56788 17.104ZM3.67163 16.624L5.62649 17.0465C5.96065 15.5004 5.97493 13.9442 5.66795 12.3952L3.7061 12.784L1.74425 13.1728C1.94459 14.1837 1.93589 15.1876 1.71676 16.2015L3.67163 16.624ZM3.7061 12.784L5.66795 12.3952L5.57282 11.9152L3.61098 12.304L1.64913 12.6928L1.74425 13.1728L3.7061 12.784ZM3.61098 12.304L5.57282 11.9152L5.4777 11.4352L3.51585 11.824L1.554 12.2128L1.64913 12.6928L3.61098 12.304ZM3.51585 11.824L5.4777 11.4352C5.25447 10.3087 5.16826 9.18831 5.21671 8.07059L3.21859 7.98398L1.22046 7.89737C1.15794 9.33965 1.26992 10.7792 1.554 12.2128L3.51585 11.824ZM3.21859 7.98398L5.21671 8.07059L5.23752 7.59059L3.23939 7.50398L1.24127 7.41737L1.22046 7.89737L3.21859 7.98398ZM3.23939 7.50398L5.23752 7.59059L5.25833 7.1106L3.2602 7.02398L1.26208 6.93737L1.24127 7.41737L3.23939 7.50398ZM3.2602 7.02398L5.25833 7.1106C5.31389 5.82866 5.31044 4.73941 5.18801 3.98403L3.21377 4.30399L1.23953 4.62396C1.28998 4.93523 1.31748 5.65931 1.26208 6.93737L3.2602 7.02398ZM3.21377 4.30399L5.18801 3.98403L5.1556 3.78403L3.18136 4.10399L1.20712 4.42396L1.23953 4.62396L3.21377 4.30399ZM3.18136 4.10399L5.1556 3.78403L5.12319 3.58403L3.14895 3.904L1.17471 4.22396L1.20712 4.42396L3.18136 4.10399ZM3.14895 3.904L5.12319 3.58403C5.17021 3.87414 5.12708 4.23227 4.93465 4.55833C4.76388 4.84771 4.55711 4.97367 4.50278 5.00384C4.44719 5.03472 4.45714 5.01822 4.58451 4.98693C4.70441 4.95748 4.88523 4.92533 5.14073 4.89947L4.93929 2.90964L4.73786 0.919807C4.02441 0.992031 3.22351 1.13881 2.56063 1.50698C2.20792 1.70288 1.78815 2.0198 1.48979 2.52537C1.16978 3.06763 1.08447 3.66719 1.17471 4.22396L3.14895 3.904ZM4.93929 2.90964L5.14073 4.89947L5.62073 4.85088L5.41929 2.86105L5.21786 0.871215L4.73786 0.919807L4.93929 2.90964Z" fill="#111111"/>
</svg>
